HIERARCHY
ROOT SpineBase
{
  OFFSET 0.000000 0.000000 0.000000
  CHANNELS 6 Xposition Yposition Zposition Zrotation Xrotation Yrotation
  JOINT SpineMid
  {
    OFFSET 0.000000 26.197957 0.000000
    CHANNELS 3 Zrotation Xrotation Yrotation
    JOINT SpineShoulder
    {
      OFFSET -0.005990 19.487717 -0.676557
      CHANNELS 3 Zrotation Xrotation Yrotation
      JOINT Neck
      {
        OFFSET -0.020438 6.464047 -0.501475
        CHANNELS 3 Zrotation Xrotation Yrotation
        JOINT Head
        {
          OFFSET 0.113793 12.656967 -0.685595
          CHANNELS 3 Zrotation Xrotation Yrotation
          End Site
          {
            OFFSET 0 0 0
          }
        }
      }
      JOINT ShoulderLeft
      {
        OFFSET -13.450382 -3.775500 -6.842986
        CHANNELS 3 Zrotation Xrotation Yrotation
        JOINT ElbowLeft
        {
          OFFSET -1.414748 -23.364015 -3.792932
          CHANNELS 3 Zrotation Xrotation Yrotation
          JOINT WristLeft
          {
            OFFSET 6.960577 -18.120794 -5.465648
            CHANNELS 3 Zrotation Xrotation Yrotation
            JOINT HandLeft
            {
              OFFSET 2.317001 -3.821910 -0.124507
              CHANNELS 3 Zrotation Xrotation Yrotation
              JOINT HandTipLeft
              {
                OFFSET 2.404381 -4.718252 -0.824691
                CHANNELS 3 Zrotation Xrotation Yrotation
                End Site
                {
                  OFFSET 0 0 0
                }
              }
              JOINT ThumbLeft
              {
                OFFSET -1.911182 0.476293 -1.698160
                CHANNELS 3 Zrotation Xrotation Yrotation
                End Site
                {
                  OFFSET 0 0 0
                }
              }
            }
          }
        }
      }
      JOINT ShoulderRight
      {
        OFFSET 12.327974 -3.496577 2.678270
        CHANNELS 3 Zrotation Xrotation Yrotation
        JOINT ElbowRight
        {
          OFFSET 2.693222 -24.240974 0.178174
          CHANNELS 3 Zrotation Xrotation Yrotation
          JOINT WristRight
          {
            OFFSET 1.532735 -20.132192 -7.377180
            CHANNELS 3 Zrotation Xrotation Yrotation
            JOINT HandRight
            {
              OFFSET -2.174299 -2.909415 -1.292672
              CHANNELS 3 Zrotation Xrotation Yrotation
              JOINT HandTipRight
              {
                OFFSET 0.244904 -4.539960 -1.802077
                CHANNELS 3 Zrotation Xrotation Yrotation
                End Site
                {
                  OFFSET 0 0 0
                }
              }
              JOINT ThumbRight
              {
                OFFSET 1.651303 0.296593 -1.553221
                CHANNELS 3 Zrotation Xrotation Yrotation
                End Site
                {
                  OFFSET 0 0 0
                }
              }
            }
          }
        }
      }
    }
  }
  JOINT HipLeft
  {
    OFFSET -5.505231 0.413590 -4.997697
    CHANNELS 3 Zrotation Xrotation Yrotation
    JOINT KneeLeft
    {
      OFFSET -3.075414 -31.551675 0.901589
      CHANNELS 3 Zrotation Xrotation Yrotation
      JOINT AnkleLeft
      {
        OFFSET -1.009122 -33.627074 12.183740
        CHANNELS 3 Zrotation Xrotation Yrotation
        JOINT FootLeft
        {
          OFFSET 3.550028 -5.561463 -4.686828
          CHANNELS 3 Zrotation Xrotation Yrotation
          End Site
          {
            OFFSET 0 0 0
          }
        }
      }
    }
  }
  JOINT HipRight
  {
    OFFSET 5.242548 0.847042 -1.204568
    CHANNELS 3 Zrotation Xrotation Yrotation
    JOINT KneeRight
    {
      OFFSET -2.298584 -25.980129 -10.796344
      CHANNELS 3 Zrotation Xrotation Yrotation
      JOINT AnkleRight
      {
        OFFSET -3.759518 -34.893995 18.579134
        CHANNELS 3 Zrotation Xrotation Yrotation
        JOINT FootRight
        {
          OFFSET 3.076199 -3.380555 -11.482353
          CHANNELS 3 Zrotation Xrotation Yrotation
          End Site
          {
            OFFSET 0 0 0
          }
        }
      }
    }
  }
}
MOTION
Frames: 9
Frame Time: 0.033333
16.468715 75.917789 373.260201 0.529975 -2.069007 -10.849299 0.701978 0.914004 10.882063 0.170424 0.020928 0.066898 -8.176887 1.732368 -0.287706 0.000000 0.000000 0.000000 -87.851566 43.262096 48.786306 -146.761650 -5.861819 51.672121 -37.906321 27.222322 28.283331 29.912264 50.605110 -37.777741 0.000000 0.000000 0.000000 0.000000 0.000000 0.000000 89.337275 16.974035 -14.433293 141.769703 25.304432 90.773054 -13.781979 -54.530262 -73.503160 -6.959125 42.490767 47.420157 0.000000 0.000000 0.000000 0.000000 0.000000 0.000000 -2.182023 0.955479 10.935347 2.891139 4.554708 0.311046 -6.260151 -25.817384 -14.780118 0.000000 0.000000 0.000000 7.283506 -25.061380 14.230005 -4.436858 43.692508 -2.775711 2.017583 -16.289931 6.635720 0.000000 0.000000 0.000000
16.531098 75.854526 373.196191 0.774442 -1.970230 -11.105891 0.605292 0.747471 11.150471 0.129081 -0.046193 0.069871 -8.162320 2.340289 -0.251432 0.000000 0.000000 0.000000 -86.567878 43.196157 47.793404 -146.418832 -5.272558 49.822091 -40.670695 26.991186 29.996639 20.679689 46.711720 -29.258671 0.000000 0.000000 0.000000 0.000000 0.000000 0.000000 89.988821 16.484085 -14.330311 140.620856 25.844504 92.572995 -19.569104 -53.571848 -77.986957 -7.778074 44.743913 49.845403 0.000000 0.000000 0.000000 0.000000 0.000000 0.000000 -2.342066 0.626069 11.210149 2.758514 4.793969 0.249756 -8.677388 -31.203133 -19.046021 0.000000 0.000000 0.000000 7.030907 -25.236833 14.593154 -4.078346 43.672700 -2.949667 2.194637 -12.092512 8.227304 0.000000 0.000000 0.000000
16.587204 75.793906 373.135498 0.982262 -1.903105 -11.448614 0.568733 0.636035 11.503426 0.106702 -0.080190 0.075291 -8.241976 2.956855 -0.223397 0.000000 0.000000 0.000000 -86.148037 43.466162 47.603813 -145.869030 -4.304048 48.376574 -43.317101 28.616048 31.149284 37.936422 51.743362 -45.649754 0.000000 0.000000 0.000000 0.000000 0.000000 0.000000 90.451072 16.049484 -14.193903 139.852597 26.143480 93.590609 -24.374328 -52.101907 -81.374047 -6.936075 46.606216 50.581870 0.000000 0.000000 0.000000 0.000000 0.000000 0.000000 -2.292854 0.287229 11.579692 2.358555 5.139262 0.142679 -5.584923 -24.188799 -13.090338 0.000000 0.000000 0.000000 6.853843 -25.349180 15.037131 -3.778701 43.606711 -3.101813 2.043501 -15.251293 6.651170 0.000000 0.000000 0.000000
16.654863 75.742153 373.079114 1.111899 -1.905059 -11.735750 0.492772 0.508381 11.796905 0.092661 -0.092749 0.075475 -7.879382 3.777284 -0.172056 0.000000 0.000000 0.000000 -86.381987 44.091605 48.257584 -145.059540 -3.477979 48.214434 -46.714061 34.316747 32.047558 50.420345 56.564894 -58.854794 0.000000 0.000000 0.000000 0.000000 0.000000 0.000000 91.174868 15.851972 -14.336489 139.202973 26.020432 93.537646 -24.892388 -51.184950 -81.380498 -6.293931 46.118845 50.039822 0.000000 0.000000 0.000000 0.000000 0.000000 0.000000 -2.261675 0.157684 11.882642 2.009308 5.326136 0.055886 -3.707945 -18.532031 -8.896372 0.000000 0.000000 0.000000 6.694161 -25.375167 15.405059 -3.366779 43.528489 -3.279270 1.948990 -15.195234 6.444176 0.000000 0.000000 0.000000
16.717310 75.743532 373.026939 1.273308 -1.851151 -12.119518 0.500908 0.512634 12.188268 0.108455 -0.052688 0.083683 -8.138652 3.914335 -0.186080 0.000000 0.000000 0.000000 -86.983667 44.400163 48.707930 -144.522041 -2.298372 46.977304 -51.331650 37.340344 34.334781 60.597934 70.016447 -73.863796 0.000000 0.000000 0.000000 0.000000 0.000000 0.000000 91.622125 15.942317 -14.487723 138.839175 25.772708 92.681881 -28.242518 -52.065117 -84.352400 -8.612600 48.454088 51.742886 0.000000 0.000000 0.000000 0.000000 0.000000 0.000000 -2.307988 -0.013420 12.277127 1.735848 5.465195 -0.016831 -2.770453 -14.878026 -6.307314 0.000000 0.000000 0.000000 6.606140 -25.457106 15.881653 -2.835011 43.418341 -3.446730 1.730621 -15.076106 6.046178 0.000000 0.000000 0.000000
16.759917 75.775392 372.991392 1.464944 -1.784199 -12.553170 0.556763 0.591931 12.630559 0.127944 0.005074 0.096040 -8.843970 3.689422 -0.234749 0.000000 0.000000 0.000000 -87.705603 44.587190 49.035323 -144.249556 -0.737232 44.832766 -55.690561 39.107115 36.432524 68.128114 69.694476 -81.086375 0.000000 0.000000 0.000000 0.000000 0.000000 0.000000 91.645736 16.286299 -14.689754 138.731585 26.032631 92.189056 -31.631079 -52.488803 -87.301520 -10.505779 50.175575 53.111851 0.000000 0.000000 0.000000 0.000000 0.000000 0.000000 -2.444896 -0.148941 12.714283 1.551862 5.533545 -0.067921 -2.259729 -13.032566 -5.034780 0.000000 0.000000 0.000000 6.550203 -25.516223 16.398759 -2.345653 43.269289 -3.574393 1.501452 -14.938334 5.604350 0.000000 0.000000 0.000000
16.835233 75.822978 372.960028 1.773046 -1.676733 -12.941856 0.695037 0.733382 13.032798 0.285404 0.090559 0.126098 -10.495197 3.109706 -0.350820 0.000000 0.000000 0.000000 -89.478303 44.942886 49.929719 -144.072702 1.324567 42.527766 -59.530040 40.280990 38.213043 57.739440 46.149522 -57.996427 0.000000 0.000000 0.000000 0.000000 0.000000 0.000000 91.425874 16.792849 -14.973393 138.747442 25.582166 90.334039 -30.645901 -57.231352 -88.376637 -13.358635 55.520197 55.936507 0.000000 0.000000 0.000000 0.000000 0.000000 0.000000 -2.780409 -0.336802 13.101327 1.492366 5.545287 -0.101985 -3.450668 -18.853333 -8.684167 0.000000 0.000000 0.000000 6.356826 -25.629538 16.875901 -2.041360 43.224372 -3.692115 1.455807 -14.887174 5.318971 0.000000 0.000000 0.000000
16.921989 75.881034 372.940826 2.082095 -1.582634 -13.265399 0.725842 0.770143 13.369113 0.303518 0.080148 0.142979 -11.647371 2.866405 -0.417796 0.000000 0.000000 0.000000 -93.318913 45.995444 53.290761 -143.387965 3.256988 43.099868 -62.774803 38.187560 41.354497 60.497183 28.963461 -47.635290 0.000000 0.000000 0.000000 0.000000 0.000000 0.000000 91.499659 17.488425 -15.609897 138.654665 26.079869 89.533614 -28.788031 -58.585047 -87.290371 -16.205565 54.931644 57.475586 0.000000 0.000000 0.000000 0.000000 0.000000 0.000000 -3.243405 -0.471625 13.413026 1.610379 5.431585 -0.103994 -3.460101 -18.566086 -8.397763 0.000000 0.000000 0.000000 6.140977 -25.722286 17.270739 -1.892572 43.201526 -3.775554 1.519597 -14.887628 5.108606 0.000000 0.000000 0.000000
16.998499 75.944319 372.916799 2.369218 -1.534000 -13.561099 0.704894 0.629284 13.679386 0.224442 -0.033356 0.150162 -12.381405 3.485521 -0.373539 0.000000 0.000000 0.000000 -94.774411 46.786856 55.022153 -143.069074 4.446016 43.030580 -56.399266 40.164955 36.517618 60.606645 21.420968 -46.973495 0.000000 0.000000 0.000000 0.000000 0.000000 0.000000 91.772437 18.232135 -16.594300 138.438071 27.342451 89.930045 -24.944801 -54.948748 -82.475018 -12.878268 49.052304 53.825182 0.000000 0.000000 0.000000 0.000000 0.000000 0.000000 -3.751183 -0.506925 13.690163 1.843130 5.161415 -0.071644 -2.322597 -14.257188 -5.835514 0.000000 0.000000 0.000000 5.974153 -25.755728 17.612822 -1.777164 43.013531 -3.793787 1.496649 -14.764515 4.889526 0.000000 0.000000 0.000000
